<?xml version="1.0" encoding="UTF-8"?>
<svg id="Layer_2" data-name="Layer 2" xmlns="http://www.w3.org/2000/svg" viewBox="0 0 1981.87 595.28">
  <defs>
    <style>
      .cls-1 {
        fill: #12120d;
      }

      .cls-2 {
        fill: #110d00;
      }
    </style>
  </defs>
  <g>
    <g>
      <polygon class="cls-2" points="599.16 260.45 616.51 244.19 678.81 324.81 754.07 324.81 658.47 204.85 756.06 113.36 672.04 113.36 599.16 188.29 599.16 30.13 535.45 30.13 535.45 324.81 599.16 324.81 599.16 260.45"/>
      <path class="cls-2" d="M917.74,299.6v25.21h64.51V113.36h-63.32v25.66c-3.83-4.98-8.19-9.49-13.14-13.51-6.37-5.18-13.74-9.22-22.1-12.15-8.36-2.92-17.59-4.38-27.67-4.38-18.32,0-34.64,4.71-48.98,14.13-14.34,9.43-25.62,22.37-33.85,38.83-8.23,16.46-12.35,35.44-12.35,56.94s4.11,39.76,12.35,56.35c8.22,16.59,19.31,29.61,33.25,39.03,13.94,9.42,29.8,14.14,47.59,14.14,9.56,0,18.58-1.46,27.08-4.38,8.49-2.92,16.19-6.9,23.1-11.95,5.09-3.72,9.6-7.88,13.54-12.47h-.01ZM871.54,274.63c-9.55,0-17.86-2.25-24.89-6.77-7.04-4.51-12.54-10.95-16.53-19.31-3.98-8.36-5.97-18.25-5.97-29.67s1.99-21.3,5.97-29.67c3.99-8.36,9.49-14.86,16.53-19.51,7.03-4.64,15.33-6.97,24.89-6.97s18.32,2.33,25.49,6.97c7.17,4.65,12.74,11.15,16.72,19.51,3.99,8.36,5.97,18.26,5.97,29.67s-1.99,21.31-5.97,29.67c-3.98,8.36-9.55,14.8-16.72,19.31-7.17,4.52-15.67,6.77-25.49,6.77Z"/>
      <rect class="cls-2" x="1041.97" y="113.36" width="63.72" height="211.45"/>
      <path class="cls-2" d="M1045.76,62.99c6.77,5.71,16.13,8.56,28.08,8.56s20.9-3.05,27.67-9.16c6.77-6.1,10.16-14.07,10.16-23.89,0-10.35-3.32-18.38-9.95-24.09-6.64-5.71-15.93-8.56-27.87-8.56s-20.98,3.06-27.88,9.16c-6.91,6.11-10.35,13.94-10.35,23.49,0,10.62,3.38,18.79,10.15,24.49h-.01Z"/>
      <path class="cls-2" d="M831.72,376.68c-11.15-6.5-25.09-9.76-41.81-9.76-6.64,0-13.54.93-20.7,2.79-7.17,1.86-14.08,4.58-20.71,8.16-6.64,3.58-12.68,7.96-18.12,13.14-4.22,4.02-7.83,8.4-10.85,13.14-3.04-6.76-6.65-12.48-10.85-17.12-6.37-7.03-13.81-12.14-22.3-15.33-8.5-3.19-17.92-4.78-28.28-4.78-6.91,0-13.74.93-20.51,2.79-6.77,1.86-13.28,4.58-19.51,8.16-6.24,3.58-11.81,8.03-16.72,13.34-1.58,1.71-3.04,3.53-4.44,5.4l-1.34-25.71h-60.53v211.45h64.11v-126.23c0-5.04.93-9.69,2.79-13.94,1.85-4.24,4.44-7.97,7.76-11.15s7.3-5.71,11.95-7.57c4.64-1.85,9.76-2.78,15.33-2.78,6.37,0,11.95,1.46,16.72,4.38,4.78,2.93,8.37,7.17,10.76,12.74,2.39,5.58,3.58,12.35,3.58,20.31v124.24h64.11v-125.84c0-5.31.93-10.09,2.79-14.34,1.85-4.24,4.45-7.97,7.76-11.15,3.32-3.18,7.3-5.71,11.95-7.57,4.64-1.85,9.76-2.78,15.33-2.78,6.9,0,12.67,1.39,17.32,4.18,4.64,2.79,8.16,6.97,10.55,12.55,2.39,5.57,3.58,12.61,3.58,21.11v123.84h64.11v-129.02c0-18.58-2.85-34.38-8.56-47.39s-14.14-22.76-25.28-29.27h.01Z"/>
      <path class="cls-2" d="M1061.48,396.57c-3.83-4.98-8.19-9.49-13.14-13.51-6.37-5.18-13.74-9.22-22.1-12.15-8.36-2.92-17.59-4.38-27.67-4.38-18.32,0-34.64,4.71-48.98,14.13-14.34,9.43-25.62,22.37-33.85,38.83s-12.35,35.44-12.35,56.94,4.11,39.76,12.35,56.35c8.22,16.59,19.31,29.61,33.25,39.03s29.8,14.14,47.59,14.14c9.56,0,18.58-1.46,27.08-4.38,8.49-2.92,16.19-6.9,23.1-11.95,5.09-3.72,9.6-7.88,13.54-12.47v25.21h64.51v-211.45h-63.32v25.66h-.01ZM1056.31,506.11c-3.98,8.36-9.55,14.8-16.72,19.31-7.17,4.52-15.67,6.77-25.49,6.77s-17.86-2.25-24.89-6.77c-7.04-4.51-12.54-10.95-16.53-19.31-3.98-8.36-5.97-18.25-5.97-29.67s1.99-21.3,5.97-29.67c3.99-8.36,9.49-14.86,16.53-19.51,7.03-4.64,15.33-6.97,24.89-6.97s18.32,2.33,25.49,6.97c7.17,4.65,12.74,11.15,16.72,19.51,3.99,8.36,5.97,18.26,5.97,29.67s-1.99,21.31-5.97,29.67Z"/>
      <rect class="cls-2" x="1184.53" y="370.91" width="63.72" height="211.45"/>
      <path class="cls-2" d="M1244.27,271.95c-6.64-5.71-15.93-8.56-27.88-8.56s-20.98,3.06-27.87,9.16c-6.91,6.11-10.35,13.94-10.35,23.49,0,10.62,3.38,18.79,10.15,24.49,6.77,5.71,16.13,8.56,28.08,8.56s20.9-3.05,27.67-9.16c6.77-6.1,10.16-14.07,10.16-23.89,0-10.35-3.32-18.38-9.95-24.09h-.01Z"/>
      <path class="cls-2" d="M1454.51,481.61c-5.32-5.84-12.48-10.88-21.51-15.13-9.02-4.24-19.78-8.1-32.25-11.55-10.09-2.92-18.06-5.38-23.89-7.37-5.84-1.99-10.09-3.78-12.74-5.38-2.66-1.59-4.72-3.58-6.17-5.97-1.46-2.39-2.19-4.91-2.19-7.57s.53-4.98,1.59-6.97c1.06-1.99,2.65-3.71,4.78-5.18,2.12-1.45,4.71-2.52,7.77-3.18,3.05-.66,6.57-1,10.55-1,5.31,0,11.15,1.07,17.52,3.19,6.37,2.13,12.55,4.97,18.51,8.56,5.97,3.58,11.35,7.63,16.13,12.14l33.45-37.43c-7.17-6.63-15.33-12.34-24.49-17.12s-19.05-8.5-29.67-11.15-21.77-3.98-33.45-3.98c-10.89,0-21.44,1.53-31.66,4.58-10.22,3.06-19.25,7.5-27.08,13.34s-14.07,12.74-18.72,20.71c-4.65,7.96-6.97,16.86-6.97,26.68,0,8.5,1.45,16.13,4.38,22.9,2.92,6.77,7.03,12.94,12.34,18.51,5.84,5.84,13.34,10.95,22.5,15.33,9.16,4.38,19.97,8.16,32.45,11.35,8.76,2.39,15.93,4.51,21.51,6.37,5.57,1.86,9.55,3.45,11.94,4.78,4.78,2.93,7.17,7.04,7.17,12.35,0,2.66-.53,4.98-1.59,6.97-1.06,1.99-2.59,3.72-4.58,5.18s-4.45,2.59-7.37,3.38c-2.92.8-6.24,1.2-9.95,1.2-9.3,0-19.12-1.92-29.47-5.78-10.35-3.84-19.65-9.89-27.88-18.12l-38.63,33.45c9.29,11.15,21.83,20.05,37.63,26.68,15.79,6.63,34.05,9.95,54.76,9.95,16.99,0,32.12-2.99,45.4-8.96,13.27-5.97,23.7-14.2,31.26-24.69,7.57-10.48,11.35-22.5,11.35-36.04,0-6.9-1.06-13.34-3.18-19.31-2.13-5.97-5.32-11.21-9.56-15.73h0Z"/>
      <path class="cls-2" d="M1663.38,380.87c-17.12-9.56-36.71-14.34-58.74-14.34s-41.62,4.78-58.74,14.34c-17.12,9.55-30.66,22.56-40.62,39.02-9.95,16.47-14.93,35.31-14.93,56.55s4.98,40.09,14.93,56.55c9.95,16.47,23.49,29.47,40.62,39.03,17.12,9.56,36.7,14.34,58.74,14.34s41.61-4.78,58.74-14.34c17.12-9.55,30.59-22.56,40.42-39.03,9.82-16.46,14.74-35.3,14.74-56.55s-4.92-40.08-14.74-56.55c-9.83-16.46-23.3-29.47-40.42-39.02h0ZM1647.65,504.71c-4.25,8.23-10.09,14.74-17.52,19.51-7.43,4.78-15.93,7.17-25.48,7.17s-18.12-2.39-25.68-7.17c-7.57-4.78-13.48-11.28-17.72-19.51-4.25-8.22-6.24-17.65-5.97-28.28-.27-10.61,1.73-20.11,5.97-28.47s10.15-14.93,17.72-19.71,16.13-7.17,25.68-7.17,18.05,2.39,25.48,7.17c7.43,4.78,13.27,11.35,17.52,19.71,4.24,8.36,6.23,17.86,5.97,28.47.26,10.62-1.73,20.05-5.97,28.28h0Z"/>
      <path class="cls-2" d="M1951.48,405.36c-5.57-12.87-13.81-22.56-24.69-29.07-10.89-6.5-24.29-9.76-40.22-9.76-11.68,0-22.84,2.39-33.45,7.17-10.62,4.78-19.72,11.09-27.28,18.91-1.34,1.39-2.58,2.81-3.78,4.25l-1.2-25.96h-60.53v211.45h63.71v-126.63c0-5.04.99-9.69,2.99-13.94,1.99-4.25,4.71-8.03,8.16-11.35,3.45-3.31,7.57-5.84,12.34-7.57,4.78-1.72,9.95-2.59,15.53-2.59,7.17-.26,13.2.99,18.12,3.78,4.91,2.79,8.56,6.97,10.95,12.55,2.39,5.57,3.58,12.61,3.58,21.11v124.64h64.11v-129.82c0-18.58-2.79-34.31-8.36-47.19l.02.02Z"/>
    </g>
    <path class="cls-2" d="M510.22,351.51v-.23c-.75-11.99-2-24.38.07-36.38.34-6.53-2.1-12.98-2.13-19.57.43-9.12.85-18.17.89-27.03.62-23.45,4.22-52.72-24.32-61.45-3.27-1.25-7.09-5.86-1.51-5.56,6.58.85,12.42-.49,19-3.1,9.17-4.28,6.37-16.8,7.25-24.84.26-17.29.69-34.51-.72-51.74-.26-15.29-1.18-31.32.39-46.72-.13-5.41-4.41-9.44-9.81-6.04-6.6,3.07-11.57,13.01-16.08,18.2-11.63,14.16,12.91-39.05,13.08-42.28,2.35-8.86,15.62-27.65.2-28.63h-.1c-7.78-.13-21.25.56-24.35.79s-15.33,5.42-23.4,6.24c-33.18,5.4-48.5,35.52-58.68,63.7-12.75,26.45-23.37,53.41-35.89,80.06-1.74,2.15-8.27,21.4-12.49,20.82-.92-4.51-1.28-10.47-5.73-20.43-1.89-4.05-3.33-8.5-5.64-12.32-1.31-3.92-10.88-7.66-6.51-11.96,3.02-1.61,9.98-.2,12.65-2.56,4.09-5.74-1.89-14.83-5.35-20.07-5.1-5.69-12.75-9.48-6.38-17.92,4.71-8.14,2.36-19.21-3.59-26.3-2.64-3.1-5.68-5.96-6.86-9.98C292.13,2.99,209.38-1.75,180.49,59.8c-5.43,11.73-6.74,25.79-7.32,38.63,1.26,16.47,11.6,31.68,5.35,48.26-6.3,12.36-10.94,25.38-12.19,39.31-1.21,5.46-1.43,11.7-4.74,16.38-8.91,8.04-20.59,13.21-31.14,18.56-6.89,5-14.41,8.6-22.1,12.09-11.7,6.78-22.55,14.46-35.13,19.76-4.68,1.56-9.02,4.3-13.21,6.63-4.12,1.69-8.07,1.82-11.57,4.71-12.85,8.8-21.79,16.84-27.25,32.65-3.53,6.66-.23,13.06-.49,20,.75,11.01.62,22.51.36,33.31,1.12,16.49-2.74,32.93-.36,49.47,1.8,18.9-1.35,37.86-1.02,56.74,2.56,17.03-.77,34.43,1.38,51.49-.1,8.96-1.84,17.51-2,26.27.33,9.94,1.84,20.1.98,30.11-.23,2.41.46,6.2,3,3.04,6.97-9.93,9.35-23.07,12.78-33.38,3.86-7.09,6.51-13.98,9.39-21.63.46-1.51,2.18-4.74,3.5-5.04,3.76,3.53-2.38,11.99-3.1,16.61-2.3,14.41-12.59,31.5-2.64,44.75,14.51,17.43,49.73,7.52,70.62,10.39,30.7,1.77,27.22,1.41,27.29-28.11.07-4.78,2.46-4.64,5-.43,10.83,23.83,32.36,30.5,56.91,27.68,10.11-1.23,20.26,2.23,30.37.66,8.3-1.56,16.38,2,24.71.95,5.41-.13,14.11-.89,9.14-8.14-6.79-10.35-9.17-23.4-15.39-34.13-10.42-20.94-22.09-41.53-30.03-63.6-3.72-8.79-10.7-16.05-13.11-25.5-4.25-15-13.24-27.88-17.85-42.81-1.15-2.23-4.45-8.57-1.59-9.52,5.91,2.76,8.84,11.96,14.21,15.79,10.5,8.24,23.04,15.41,36.77,14.49,7.12.03,14.29,1.15,21.45.69,6.33-.33,14.51-1.61,18.26,4.82,7.32,16.77,20.76,30.44,28.24,47.27,1.41,6.24,9.98,11.99,5.96,18.39-2,2.53-5.14,4.05-7.42,6.28-4.81,4.18-7.07,10.68-11.63,15.13-5.5,4.61-11.68,8.07-15.24,14.6-.72,1.48-2.67,3.12-1.99,4.71,12.16.3,31.11-23.3,40.79-20.53,2.64,2.66,2.41,8.14,3.4,11.86,3.23,8.76,4.12,18.18,6.76,27.14,2.43,6.17,1.97,15.85,7.91,19.54.66-.07.79-2,.72-3.17-.59-9.78-1.31-19.54-.85-29.32.43-5.89-6.6-38.87,5.1-35.46,10.78,3.36,21.58,5.55,32.32,9.24,1.58.46,4.81,1.31,5.07-.71-1.08-3.54-6.05-4.87-9.02-6.65-14.11-10.81-30.98-17.46-45.04-28.14-7.02-6.92-12.55-15.72-17.74-24.12-6.88-8.47-13.31-17.46-18.9-26.83-1.76-10.96,21.12-3.35,27.45-4.64,13.18.39,26.65-.3,39.5,1.89,14.54-2.61,30.45-1.1,45.3-.87,10.85,1.53,14.9,19.18,20.86,27.75,4.86,11.83,14.08,21.27,19.05,33.08,4.71,8.11.95,13.32-6.02,18.1-4.48,3.89-8.24,8.96-12.85,12.78-3.17,2.41-9.47,6.76-9.47,6.76l-.03.03c-1.97,1.54-3.86,3.23-5.5,5.4-7.84,9.81,3.63,8.47,9.25,3.92,9.99-5.07,19.02-17.23,30.78-16.31,1.61,1.21,3.46,4.87,3.46,4.87l.16.36s1.64,5.45,2.53,7.91c1.59,2.87,5.09,26.2,8.4,37.71l.23.23c-.07.03-.1.07-.16.1,1.53,5.3,3.04,7.94,4.22,4.48.71-11.47.2-22.84-.23-34.41-1.15-10.47-8.89-39.07,11.11-30.67,7.45,3.92,16.08,2.95,23.79,6.61,2.1.74,5.99,2.54,6.69,0-.8-3.08-5.02-3.79-7.68-5.43-6.99-4.54-13.49-10.12-21.56-12.75-14.36-5.84-26.32-16.02-34.88-28.9-6.76-5.02-9.3-7.65-12.42-15.69-3.95-5.5-7.38-8.3-9.24-14.47-15.64-19.36,17.57-9.12,26.86-10.37,11.8-.23,23.69.36,35.46-.36,6.48,0,19.41,2.13,23.5-2.74-1.2-10.35-13.26-16.31-16.61-26.02-2.31-4.79-5.45-9.07-8.88-13.19,0,0-17.82-24.38-22.27-29.85-1.05-1.64-2.18-3.17-3.33-4.68-.79-2.38-9.35-10.71-9.39-12.75-.16-1.13,2.59-.26,4.22.56,6.38,2.71,11.82,13.13,13.44,13.96s9.73,10.35,13.43,11.72c2.64.98,4.06.9,7.34,2.54,4.15,2.08,5.64,4.08,10.06,7.47,2,1.53,2.98,5.87,11.28,5.87.67,0,1.13-.74,1.82-1.55,0,0,1.73-1.38,1.73-3.68,0-8.11,1.26-16.18.66-24.28v.04ZM303.65,275.72c2.46-.75,9.47,1.9,9.8,4.74-1.13,9.63-7.3,22.22-12.57,26.78-3.18,2.79-9.43.77-10.29-3.74-3.05-11.29,3.5-23.86,12.8-27.71l.26-.07h0ZM239.82,88.12c.49-3.04,2.4-5.43,4.69-7.38,2.56-2.41,5.15-5.23,8.58-6.32.07-.02.13-.03.2-.05.54-.13,1.03-.25,1.59-.33,4.76-.8,9.78-.15,14,1.99,2.66.75,4.17,2.64,5.86,4.94,3.56,3.08,5.28,6.32,4.71,11.14v.2c-.39,3.18-.34,6.5-1.71,9.45-1.35,2.84-2.41,6.22-4.69,8.61-3.38,3.66-8.7,4.51-13.44,4.51h-1.58c-.89.02-1.79.05-2.67.02-1.59-.03-3.15-.23-4.59-.94-4.69-1.99-7.6-6.27-9.57-10.76-2.76-4.61-2.61-10.06-1.38-15.08h0ZM259.46,309.26c-1.24.48-3.41,1.11-6.07.78-1.04-.13-1.94-.38-2.68-.65-.92-.23-2.61-.79-3.52-2.31-.72-1.2-.63-2.46-.59-3.02,1.11-15.52,1.23-15.44,1.61-18.07.64-4.43,2.82-10.12,5.4-13.63l.2-.21c1.43-1.57,3.77-2.76,6.11-3.17,0,0,3.19-.31,6.03,1.57,6.72,4.43,7.26,20.77.13,31.67-2.27,3.48-4.9,5.75-6.61,7.05h-.01ZM170.37,230.62c1.26-8.3,4.18-15.85,10.68-20.81,3.04-2.56,7.06-.69,9.4,1.97,6.22,6.84-.11,19.89-2.13,28.01l-.11.31c-1.15,3.49-3.12,7.53-5.89,8.88-5.05,2.13-11.45-2.56-13.06-7.7-1.3-3.61.59-7.09,1.12-10.67h0ZM162.92,381.57c-2.15.41-3.97-.84-5.96-2.81-4.59-4.71-9.48-14.28-11.93-20.22l-.05-.2c-.48-3.69,3.38-9.42,5.37-12.95,1.74-2.49,3.02-5.53,5.83-5.92,7.6-1.1,16.23,19.1,17.31,28.88.57,5.73-6.33,12.13-10.57,13.21h0ZM150.41,270.8c2.66.02,5.65,3.69,6.25,4.87s4.01,9.33,5.34,12.03c3.72,7.52,5.64,9.86,4.91,13.64-.18.92-.56,5.31-3.89,7.29-2.8,1.66-6.07.69-7.39.3-9.23-2.75-12.58-15.91-13-17.66-.38-1.1-2.5-7.64,1.11-14.03,2.11-3.72,4-6.46,6.66-6.43h0ZM128.92,326.21c.66,1.76,1.85,4.23,2.15,5.82.07.51-.02,1.02-.18,1.54-1.1,2.89-2.99,8.99-4.4,11.93-1.69,2.15-6.1,2.18-8.32,1.82-5.25-1.59-9.09-10.6-12.65-18.69-1.84-5.41-3.79-9.17-3.02-13.83,1-2.97,5.38-7.35,8.61-6.51l.23.08c1.13.43,2.28,1.16,3.46,1.82,9.48,5.4,10.17,6.07,14.11,16.02h0ZM117.04,258.08c.96.51,1.22.84,1.85,1.76.79,1.14,1.01,2.27,1.09,2.85.06.95.12,2.39.14,4.12.05,5.78.43,8.8-.85,11.65-1.36,3.04-3.92,6.27-6.05,9.52-1.1,1.71-2.92,2.07-4.64,1.26-5.6-2.1-6.94-7.4-7.89-13.09-.59-3.23-2.07-6.4-2.43-9.7-.17-1.54.06-3.55.92-5.12,2.15-3.94,15.87-4.35,17.87-3.25h0ZM105.34,364.17l.18-.03c.48-.07.82.15,1.18.49,1.76,1.92,5.73,6.42,7.93,8.86,5.35,6.01,11.76,15.82,8.75,24.32-.43,1.15-1.2,2.2-2.25,2.66-10.85,2.63-21.94-9.75-25.22-21.04-1.76-6.17,4.02-12.47,9.43-15.26h0ZM70.5,308.19c1.57,1.79,7.96,9.42,7.7,19.18-.11,4.07-1.34,7.56-1.5,8-1.39,3.83-3.31,6.24-4.98,8.29-2.17,2.66-3.61,4.39-5.81,4.48-1.39.06-2.53-.56-3.24-1.05l-1.37-1.09c-3.03-4.12-8.79-13.31-7.61-24.73.21-2.02,1.51-14.62,8.29-16.15,3.47-.78,6.87,1.67,8.51,3.05v.02ZM45.36,466.29c-8.43,7.74-20.48,1.8-19.85-10.21v-.36c.15-6.38.87-12.83,6.81-15.08,5.14-1.9,10.91-.41,13.73,4.55,2,3.61,1.81,7.7,2.02,11.75.23,3.51.41,7.14-2.71,9.35h0ZM47.2,400.48c-12.44-6.12-15.26-37.07-9.16-37.44,2.33.21,5.15,2.59,7.27,3.56l.25.13c6.73,3.48,12.82,8.43,14.1,17.16.75,3.58,2.1,7.01.08,10.21-2.25,3.58-8.6,7.76-12.54,6.38ZM85.12,559.72c-.39,1.64-1.53,2.81-3.08,3.26-4.99,1.61-10.93,1.26-14.21-2.51-.46-.53-.92-1.02-2.59-4-2.3-4.12-3.97-7.57-5.05-9.92-.15-.71-.86-4.47,1.52-7.67.55-.74,2.02-2.72,4.73-3.15,2.55-.41,4.52.84,5.02,1.18,1.1.3,2.68.86,4.33,1.96,1.44.97,2.87,2.31,4.76,5.25,4.72,7.33,5.09,13.49,4.58,15.61h-.01ZM85.6,512.35c-1.54,5.76-15.13,5.05-18.26.8-1.67-1.92-7.1-8.16-9.16-10.52-.14-.16-.56-.59-.94-1.28-.65-1.17-.73-2.24-.8-2.89-.17-1.62-.71-3.18-1.03-4.77-.65-3.16-.96-4.77-.51-6.01.24-.64.55-1.12.78-1.42.22-.28.43-.57.65-.85,1.65-2.34,3.38-3.91,4.63-4.89.76-.59,4.27-3.27,7.66-3.32,1.05-.02,1.72.22,2.17.46,1.08.58,1.6,1.55,1.82,1.95,6.29,11.74,6.21,8.91,10.03,19.94,2.6,7.51,3.43,11.1,2.97,12.8h-.01ZM92.05,435.81c-.41,4.59-6.63,11.08-10.63,9.37-3.25-3.02-10.9-12.26-14.83-16.75l-.13-.16c-4.82-6.73,2-15.95,9.12-16.21,12.52-1.33,17.48,16.33,16.47,23.76h0ZM121.29,550.06c-.31,3.59-4.48,8.65-7.14,7.34-2.17-2.33-7.24-9.52-9.86-13.01l-.08-.13c-3.2-5.22,1.38-12.42,6.14-12.65,8.37-1.07,11.63,12.67,10.94,18.46h0ZM124.53,494.18c-3.11,3.74-11.1,3.37-16.58,1.13-10.94-4.49-17.42-18.68-14.02-23.69.49-.73,1.28-1.3,2.4-1.68l.26-.07c.8-.3,2.03-.68,3.57-.78,2.38-.16,4.17.43,6.61,1.26,2.22.76,3.8,1.3,5.64,2.53.98.66,1.53,1.17,5.06,5.02,4.01,4.36,4.63,5.14,5.18,5.87,3.24,4.24,3.44,5.8,3.36,6.87-.14,1.91-1.26,3.26-1.49,3.53h.01ZM126.19,453.72c-6.2-.21-11.96-4.96-13.05-11.16.08-2.58,2.07-6.78,3.31-9.3l.13-.2c1.99-1.97,7.55-1.49,9.02.92,2.43,3.79,5.79,10.45,7.33,15.37.95,3.77-3.95,4.58-6.76,4.36h.02ZM152.79,532.55c-6.88,6.92-19.77-5.04-19.3-13.87.3-5.55,1.47-8.71,1.62-9.98s1.21-2.72,2.46-3.24,2.69-.24,3.79-.2,1.88.04,2.96.18c1.63.2,2.6.19,4.21.93s2.17,6.05,3.43,9.83c.97,5,3.35,11.83.82,16.34h0ZM174.09,484.38c-.23,1.58-.82,3.04-2.05,4-3.57,2.81-10.47,2.3-14.54-1.2-3.51-3.02-1.12-4.96-5.76-11.27-1.69-2.3-3.98-4.72-4.69-8.84-.17-.96-.2-1.77-.21-2.32.16-.5.39-1.18.72-1.97,1.25-3.05,2.96-8.54,6.35-8.84,3.95-.36,8.25,1.81,10.88,4.71,3,3.25,4.28,7.02,7.06,9.94,1.17,1.25,3.02,1.79,3.08,3.86-.02,3.76-.39,8.27-.84,11.93h0ZM175.67,418.28c-1.59,3.49-4.12,7.81-7.89,8.48-2.36.3-6.17-.75-7.88-2.58-1.01-1.08-1.31-2.25-1.56-3.04-2.46-7.8-5.35-8.67-7.47-16.44-.46-1.67-1.66-5.44-1.26-7.41s1.1-2.13,1.81-2.52,1.21-.21,1.65-.32,7.55-1.01,13.08,1.84c1.47.76,2.84,1.78,4.16,3.13,4.86,5.12,8.55,11.7,5.35,18.85h0ZM248.31,577.64s.03,0,.03.03h-.07l.03-.03h.01ZM220.51,533.7l.25-.21c1.79-1.29,5.69-3.64,9.94-2.76,8.33,1.72,13.1,14.85,9.27,22.08-2,3.78-6.34,5.93-8.57,7.04-3.01,1.5-2.65.51-8.07,2.69-1.9.76-3.85,1.65-6.19,1.08-.08-.02-1.17-.31-2.01-.86-2.67-1.73-2.2-7.66-2.4-11.09.08-6.83,2.76-13.44,7.78-17.95v-.02ZM189.4,486.75c.13-2.38,1.61-6.68,1.62-9.98,0-.42-.02-1.67.8-2.63.44-.52.95-.75,1.34-.93,1.55-.69,3.09-.54,3.98-.37.84.08,1.91.26,3.09.67,1.37.47,2.44,1.08,3.2,1.6.81.66,2.06,1.86,3.04,3.7,1.2,2.26,1.39,4.35,1.41,5.46.97,5,3.35,11.83.82,16.34-6.89,6.92-19.79-5.04-19.31-13.87h.01ZM192.17,532.06c.43.18.92.47,1.24.98.21.34.31.78.3,1.41.18,3.13.62,11.08.77,13.62.15,1.56-.28,3.05-1,4.51-.86,1.92-2.05,3.02-3.37,3.46-3.76,1.25-8.41-4.67-9.26-5.76-3.46-4.39-4.21-11.58-4.59-12.45s-1.01-3.12.36-5c.87-1.2,2.21-1.45,4.84-1.9,0,0,5.73-.99,10.71,1.12h0ZM186.63,274.84c.11-4.64,7.78-9.5,11.77-8.37l.26.1c7.01,2.86,7.93,12.75,10.71,18.31,1.82,3.79,7.15,7.35,5.53,12.13-.97,2.51-2.53,5.04-3.87,7.29-1.07,1.84-2.23,3.43-4.12,3.82-12.49,2.15-19.44-23.56-20.28-33.28h0ZM214.06,371.75c-2.97-2.08-5.51-5.15-8.04-7.76-.67-.75-1.07-1.35-1.1-2.35-.15-2.44-.48-8.99-.75-14.16-.15-3.07-.33-5.58-.33-6.63.03-.34.15-.61.38-.85l.13-.13c4.22-3.05,13.18-6.1,16.39,0,4.74,9.16,6.3,41.69-6.68,31.88h0ZM229.16,245.81l-.25.07c-2.48.74-9.47-1.9-9.8-4.76,1.12-9.62,7.29-22.2,12.57-26.78,3.18-2.79,9.42-.77,10.27,3.76,3.05,11.29-3.5,23.84-12.8,27.71h.01ZM265.32,387.88c-.23,2.41-1.2,4.35-2.51,6.27-3.92,5.81-7.35,12.52-13.57,14.65-4.64,1.79-6.17-3.82-6.63-7.94-.54-5.97-4-12.21-1.2-18.2l.13-.25c1.92-3.59,6.97-6.01,10.93-7.22,8.61-3.25,13.8,4.35,12.85,12.68h0ZM277.92,359.96c-2.15,3.79-6.5,7.55-10.85,7.56-6.25-.49-10.65-9.09-9.5-15.57.43-5.79.34-14.21,6.89-16.46l.26-.1c5.51-1.33,12.96,6.5,14.65,11.34.26,4.3-.36,9.58-1.46,13.23h0ZM281.14,249.9c-4.72-5.45-3.97-16.92-3.11-21.99,1.03-6.05,3.01-10.78,4.52-13.82.24-.24,5.58-5.5,11.14-3.7.82.27,1.97.79,3.14,1.9,1.05.86,2.56,2.37,3.32,4.65.68,2.06.44,3.8.27,5.12-1.51,11.17-.84,9.48-1.55,12.36-1.37,5.58-3.46,10.16-5.41,13.64l-.18.21c-2.86,3.13-9.39,4.81-12.14,1.62h0ZM312.68,396.34c-3,3.76-7.83,7.34-13.57,8.91-5.12.9-6.97-3.23-8.5-6.38-1.51-3.74-1.82-8.78,2-11.6l.16-.13c2.51-1.61,5.84-3.56,9.17-4.78,1.92-.49,4.25.59,5.92,1.49,5.27,2.92,7.68,8.16,4.81,12.49h0ZM303.87,360.88l-.13-.21c-.89-2.05-.46-4.63-.74-7.07-.25-5-.28-9.35.87-11.63,1.36-3.04,3.91-6.28,6.05-9.52,1.08-1.72,2.92-2.08,4.64-1.26,5.58,2.08,6.94,7.4,7.89,13.09.59,3.23,2.07,6.38,2.41,9.7,1.16,11.19-14.85,12.08-21,6.91h0ZM489.61,272.18c2.9.15,5.83,1.84,6.4,5.38,1.67,11.81-5.09,33.08-13.55,28.32l-.13-.1c-6.99-5.59-3.22-34.85,7.29-33.6h-.01ZM497.55,184l-.15.18c-1.99,1.99-7.55,1.49-9.02-.9-2.43-3.79-5.78-10.47-7.33-15.38-.95-3.77,3.95-4.58,6.76-4.36,6.2.21,11.98,4.96,13.05,11.16-.08,2.58-2.07,6.76-3.3,9.3h-.01ZM477.73,107.29c2.25-3.58,8.6-7.76,12.54-6.4,12.44,6.14,15.26,37.08,9.16,37.46-2.33-.21-5.15-2.59-7.27-3.56l-.25-.13c-6.71-3.48-12.82-8.43-14.09-17.16-.75-3.58-2.1-7.01-.08-10.21h-.01ZM458.28,44.24c2.95-3.68,8.52-7.34,11.37-5.69,1.36.79,1.81,2.61,2.69,6.13.63,2.53.71,4.68.75,5.84.03.88.07,2.32-.15,4.19-.23,1.98-.71,3.64-1.65,6.88-.42,1.44-.79,2.63-1.05,3.44-.97,2.41-2.23,3.99-3.14,4.94-2.37,2.49-4.59,3.03-5.6,3.03h0s-1.56,0-3.23-1.98c-1.2-1.42-2.73-6.35-3.74-13.17-.19-2.3-.38-8.47,3.74-13.62h.01ZM438.19,134.35c.43-4.59,6.65-11.08,10.63-9.37,3.25,3,10.91,12.26,14.85,16.75l.11.16c4.82,6.73-1.99,15.93-9.11,16.21-12.52,1.31-17.49-16.33-16.49-23.76h0ZM435.78,203.9c-1.08,1.08-2.66,1.45-3.34,1.52s-1.42,0-2.39-.27c-4.22-1.14-5.46-6.08-7.93-8.86-5.33-6.01-11.75-15.82-8.73-24.32.41-1.15,1.18-2.2,2.25-2.66,14.46,1.65,24.62,11.12,25.2,21.04.36,6.23-3.13,11.22-5.07,13.55h.01ZM413.31,81.79c.84-3.7,10.73-6.59,17.97-3.87,11.3,4.25,13.33,21.13,11.16,24.69-.36.59-.83,1.07-.83,1.07-1.77,1.81-4.25,1.96-6.9,2.08-2.7.12-5.23.2-7.18-1.5-.38-.34-.66-.66-.82-.88-1.97-2.44-11.38-14.18-13.29-20.13-.08-.26-.25-.79-.1-1.44v-.02ZM389.95,124.37c1.59-3.49,4.12-7.79,7.89-8.48,2.35-.29,6.15.75,7.88,2.58.82.85,1.21,1.9,1.56,3.03,2.03,7.24,4.48,14.59,7.78,23.32.3.75.64,1.84.25,2.48l-.13.18c-.52.57-1.77.69-2.63.74-8.02.38-12.83-.51-17.25-4.99-4.87-5.1-8.57-11.7-5.35-18.85h0ZM394.2,270.52c5.6,2.1,6.94,7.4,7.89,13.09.59,3.23,2.07,6.38,2.43,9.7,1.15,11.21-14.85,12.08-21.02,6.91l-.13-.2c-.89-2.07-.46-4.64-.72-7.07-.26-5-.3-9.35.85-11.65,1.36-3.04,3.91-6.28,6.05-9.52,1.08-1.71,2.92-2.07,4.64-1.26h0ZM331.25,223.87c.98-2.51,2.54-5.02,3.89-7.27,1.07-1.84,2.23-3.43,4.12-3.84,12.47-2.13,19.44,23.58,20.28,33.29-.11,4.63-7.79,9.5-11.78,8.35l-.25-.08c-7.01-2.86-7.94-12.75-10.71-18.33-1.82-3.79-7.15-7.35-5.55-12.13h0ZM341.7,277.46l.1-.31c1.16-3.5,3.12-7.53,5.89-8.88,5.07-2.12,11.47,2.56,13.06,7.7,1.3,3.61-.57,7.09-1.12,10.67-1.25,8.3-4.17,15.85-10.68,20.81-3.04,2.56-7.04.69-9.39-1.97-6.24-6.84.11-19.89,2.13-28.01h0ZM361.89,404.3c-3,3.74-7.83,7.34-13.57,8.89-5.12.92-6.97-3.22-8.5-6.38-1.49-3.72-1.82-8.78,2-11.58l.16-.13c2.51-1.61,5.84-3.56,9.17-4.78,1.92-.51,4.25.59,5.94,1.48,5.25,2.92,7.66,8.17,4.79,12.5h0ZM361.85,349.74c-4.56,12.57-17.03,22.82-22.59,14.51l-.1-.18c-4.15-10.4,5.97-42.02,20.67-34.1,5.25,3.94,4.17,13.86,2.02,19.77ZM360.62,175.68c-.56-5.73,6.35-12.13,10.57-13.21,2.15-.41,3.97.84,5.97,2.81,4.58,4.69,9.47,14.28,11.93,20.22l.05.2c.48,3.69-3.38,9.42-5.38,12.95-1.72,2.48-3.02,5.53-5.81,5.92-7.6,1.1-16.23-19.12-17.33-28.88h0ZM382.76,356.47c-5.32-5.73-.9-14.69.44-21.79,1.17-6.83,3.38-15.74,11.4-15.77h.3c15.49,1.9,14.47,27.42,2.82,34.41-3.09,1.28-5.6,5-8.09,7.09-1.18.74-2.05.05-3.35-.77-1.25-.84-2.51-1.97-3.53-3.17h.01ZM407.34,409.17c-3.56,2.77-12.09,4.96-16.38,1.59l-.21-.18c-9.42-8.7,3.18-18.97,8.25-28.75,2.71-4.91,10.39,4.96,11.52,7.4,4.32,6.91,2.99,14.39-3.18,19.94ZM406.86,253.33l-.25-.08c-7.01-2.87-7.94-12.75-10.71-18.33-1.82-3.79-7.15-7.35-5.55-12.13.98-2.51,2.54-5.02,3.89-7.27,1.07-1.84,2.23-3.43,4.12-3.84,12.47-2.13,19.44,23.56,20.28,33.28-.11,4.64-7.79,9.52-11.78,8.37h0ZM425.67,362.87c-8.35-2.31-7.53-10.88-4.3-17.33l.1-.15c1.69-2.76,12.06-2.41,12.86.48.72,4.15.9,8.6,1,12.96-.02,1.18-.57,2.25-1.87,3.05-2.2,1.41-5.14,1.85-7.79.98h0ZM457.65,359.1c.03.13.07.33.1.56-.03-.2-.1-.39-.15-.56h.05ZM446.92,379.41c4.56.2,9.19,1.79,10.14,5,2.86,10.78-7.37,30-20.76,25.52l-.21-.08c-11.06-5.2-5.66-31.75,10.83-30.44ZM436.3,309.18l-.18-.12c-9.65-6.71-4.63-41.6,9.86-40.07,3.99.2,8.04,2.23,8.84,6.45,2.38,14.11-6.83,39.45-18.53,33.74h.01ZM471.84,253.92l-.23-.08c-1.13-.43-2.28-1.16-3.46-1.82-9.48-5.38-10.17-6.07-14.11-16-.85-2.13-1.9-3.55-2.15-5.84-.24-2.15.16-3.83.5-5.19.46-1.84,1.49-4.95,4.07-8.28,1.71-2.13,6.1-2.18,8.32-1.82,5.25,1.59,9.09,10.6,12.65,18.69,1.84,5.41,3.79,9.19,3.02,13.83-.98,2.97-5.38,7.35-8.61,6.51h0ZM494.6,352.04c-2.69,2.54-6.28,3.36-9.52,1.85-10.14-3.99-9.01-19.25-4.99-30.8l.11-.26c2.12-4.94,14.73-4.48,15.69.66.8,7.37.95,15.31,1.03,23.07-.05,2.12-.74,4.02-2.33,5.48h0Z"/>
  </g>
  <g>
    <path class="cls-1" d="M1175.05,112.63h56.98v20.05h-8.11v-11.94h-15.89v60.49h12.05v8.11h-33.2v-8.11h12.05v-60.49h-15.78v11.94h-8.11v-20.05h0Z"/>
    <path class="cls-1" d="M1283.64,168.08h-29.4l-6.98,21.26h-9.1l25.64-76.71h10.74l25.86,76.71h-9.53l-7.23-21.26ZM1257.07,160.19h24.05l-11.29-36.05h-1.32l-11.45,36.05h0Z"/>
    <path class="cls-1" d="M1359.25,130.16c0,1.83-.29,3.69-.88,5.59-.58,1.9-1.46,3.67-2.62,5.31s-2.66,3.09-4.48,4.33-3.97,2.19-6.45,2.85v.44c2.19.37,4.28.99,6.29,1.86,2,.88,3.77,2.08,5.3,3.62,1.53,1.53,2.77,3.4,3.72,5.59s1.42,4.79,1.42,7.78c0,3.94-.82,7.36-2.46,10.25s-3.79,5.24-6.45,7.07c-2.66,1.83-5.71,3.18-9.13,4.05-3.43.88-6.92,1.32-10.5,1.32h-4.37c-1.68,0-3.43-.05-5.25-.17-1.82-.11-3.65-.26-5.47-.44-1.82-.18-3.43-.46-4.81-.82v-75.5c2.7-.44,5.83-.8,9.4-1.1,3.57-.29,7.47-.44,11.7-.44,2.84,0,5.74.24,8.69.71,2.95.48,5.63,1.39,8.04,2.74,2.4,1.35,4.39,3.23,5.96,5.64,1.57,2.41,2.35,5.52,2.35,9.31h0ZM1327.91,146.38c1.24,0,2.74-.04,4.49-.11s3.21-.18,4.38-.33c1.75-.58,3.4-1.3,4.93-2.14s2.9-1.84,4.11-3.01,2.15-2.48,2.85-3.95c.69-1.46,1.04-3.07,1.04-4.82,0-2.41-.46-4.42-1.37-6.03-.92-1.61-2.14-2.88-3.67-3.83-1.53-.95-3.29-1.61-5.26-1.97-1.97-.37-3.98-.55-6.03-.55-2.41,0-4.62.05-6.63.16s-3.53.27-4.55.49v26.08h5.71ZM1333.94,182.33c2.34,0,4.6-.29,6.79-.88,2.19-.58,4.13-1.46,5.81-2.63s3.01-2.63,4-4.38,1.48-3.83,1.48-6.25c0-3-.6-5.41-1.81-7.23-1.21-1.83-2.78-3.25-4.71-4.27-1.94-1.02-4.11-1.72-6.52-2.08-2.41-.37-4.82-.55-7.23-.55h-9.53v27.51c.51.15,1.24.26,2.19.33s1.97.15,3.07.22,2.23.13,3.4.16c1.17.04,2.19.05,3.07.05h0Z"/>
    <path class="cls-1" d="M1377.77,112.63h9.1v68.6h31.01v-19.07h8.11v27.18h-48.22v-76.71Z"/>
    <path class="cls-1" d="M1445.38,112.63h45.04v8.11h-35.94v25.09h33.2v8.11h-33.2v27.29h36.49v8.11h-45.59v-76.71h0Z"/>
    <path class="cls-1" d="M1576.88,112.63h45.04v8.11h-35.94v25.09h33.2v8.11h-33.2v27.29h36.49v8.11h-45.59v-76.71h0Z"/>
    <path class="cls-1" d="M1635.29,112.63h56.98v20.05h-8.11v-11.94h-15.89v60.49h12.05v8.11h-33.2v-8.11h12.05v-60.49h-15.78v11.94h-8.11v-20.05h0Z"/>
    <path class="cls-1" d="M1819.49,130.16c0,1.83-.29,3.69-.88,5.59-.58,1.9-1.46,3.67-2.62,5.31s-2.66,3.09-4.48,4.33-3.97,2.19-6.45,2.85v.44c2.19.37,4.28.99,6.29,1.86,2,.88,3.77,2.08,5.3,3.62,1.53,1.53,2.77,3.4,3.72,5.59s1.42,4.79,1.42,7.78c0,3.94-.82,7.36-2.46,10.25s-3.79,5.24-6.45,7.07c-2.66,1.83-5.71,3.18-9.13,4.05-3.43.88-6.92,1.32-10.5,1.32h-4.37c-1.68,0-3.43-.05-5.25-.17-1.82-.11-3.65-.26-5.47-.44-1.82-.18-3.43-.46-4.81-.82v-75.5c2.7-.44,5.83-.8,9.4-1.1,3.57-.29,7.47-.44,11.7-.44,2.84,0,5.74.24,8.69.71,2.95.48,5.63,1.39,8.04,2.74,2.4,1.35,4.39,3.23,5.96,5.64,1.57,2.41,2.35,5.52,2.35,9.31h0ZM1788.15,146.38c1.24,0,2.74-.04,4.49-.11s3.21-.18,4.38-.33c1.75-.58,3.4-1.3,4.93-2.14s2.9-1.84,4.11-3.01,2.15-2.48,2.85-3.95c.69-1.46,1.04-3.07,1.04-4.82,0-2.41-.46-4.42-1.37-6.03-.92-1.61-2.14-2.88-3.67-3.83-1.53-.95-3.29-1.61-5.26-1.97-1.97-.37-3.98-.55-6.03-.55-2.41,0-4.62.05-6.63.16s-3.53.27-4.55.49v26.08h5.71ZM1794.18,182.33c2.34,0,4.6-.29,6.79-.88,2.19-.58,4.13-1.46,5.81-2.63s3.01-2.63,4-4.38,1.48-3.83,1.48-6.25c0-3-.6-5.41-1.81-7.23-1.21-1.83-2.78-3.25-4.71-4.27-1.94-1.02-4.11-1.72-6.52-2.08-2.41-.37-4.82-.55-7.23-.55h-9.53v27.51c.51.15,1.24.26,2.19.33s1.97.15,3.07.22,2.23.13,3.4.16c1.17.04,2.19.05,3.07.05h0Z"/>
    <path class="cls-1" d="M1875.38,168.08h-29.4l-6.98,21.26h-9.1l25.64-76.71h10.74l25.86,76.71h-9.53l-7.23-21.26ZM1848.81,160.19h24.05l-11.29-36.05h-1.32l-11.45,36.05h0Z"/>
    <path class="cls-1" d="M1904.86,113.4c2.77-.51,5.96-.91,9.56-1.21,3.61-.29,6.91-.44,9.89-.44,3.35,0,6.54.37,9.56,1.1,3.02.73,5.68,1.94,7.98,3.62,2.29,1.68,4.14,3.87,5.52,6.58,1.38,2.7,2.08,5.99,2.08,9.86,0,3-.49,5.64-1.48,7.95-.99,2.3-2.19,4.27-3.61,5.92-1.42,1.64-2.9,2.98-4.43,4s-2.84,1.75-3.93,2.19l20.27,36.38h-10.63l-18.08-33.75h-13.62v33.75h-9.1v-75.94h.02ZM1924.58,119.64h-2.96c-1.02,0-2.01.04-2.96.11s-1.85.15-2.68.22c-.84.07-1.52.18-2.03.33v28.27h8.55c5.04,0,9.2-1.24,12.49-3.73,3.29-2.48,4.93-6.36,4.93-11.62,0-3.95-1.35-7.19-4.05-9.75-2.7-2.56-6.47-3.83-11.29-3.83h0Z"/>
  </g>
</svg>